<svg width="43" height="33" viewBox="0 0 43 33" fill="none" xmlns="http://www.w3.org/2000/svg">
<path d="M35.6466 2.74722C32.9235 1.49664 30.0496 0.604584 27.097 0.0933761C27.0703 0.0888713 27.0428 0.0927619 27.0184 0.104513C26.9939 0.116265 26.9737 0.135299 26.9605 0.159C26.5904 0.815243 26.1809 1.67361 25.8948 2.3456C22.7123 1.86303 19.4752 1.86303 16.2927 2.3456C15.9748 1.59639 15.6137 0.866296 15.2112 0.159C15.198 0.135299 15.1778 0.116265 15.1533 0.104513C15.1289 0.0927619 15.1014 0.0888713 15.0747 0.0933761C12.1216 0.602621 9.24723 1.49511 6.52513 2.74722C6.50172 2.75592 6.48218 2.77267 6.47001 2.79447C1.02582 10.9293 -0.467794 18.8645 0.264573 26.7001C0.269823 26.7386 0.288198 26.771 0.319697 26.7972C3.49058 29.1445 7.03639 30.9374 10.8065 32.0997C10.8331 32.1081 10.8617 32.1078 10.8881 32.0988C10.9146 32.0898 10.9374 32.0727 10.9535 32.0498C11.7637 30.9473 12.4794 29.7844 13.1007 28.5612C13.1136 28.536 13.118 28.5073 13.1133 28.4794C13.1086 28.4515 13.0949 28.4259 13.0744 28.4063L13.0272 28.3774C11.8968 27.9416 10.8015 27.4194 9.75122 26.8156C9.7219 26.799 9.7001 26.7717 9.69032 26.7395C9.68055 26.7072 9.68356 26.6724 9.69872 26.6423L9.7381 26.5925C9.96034 26.4262 10.1773 26.2556 10.3891 26.0806C10.4076 26.0657 10.4299 26.0561 10.4535 26.0529C10.4771 26.0496 10.5011 26.0529 10.523 26.0622C17.3978 29.2017 24.8396 29.2017 31.6304 26.0622C31.6529 26.0518 31.678 26.048 31.7026 26.0513C31.7272 26.0545 31.7504 26.0647 31.7695 26.0806C31.9812 26.2556 32.1982 26.4262 32.4205 26.5925C32.439 26.6051 32.4539 26.6223 32.4639 26.6423C32.4738 26.6623 32.4785 26.6846 32.4775 26.707C32.4764 26.7293 32.4697 26.751 32.4579 26.7701C32.446 26.7891 32.4296 26.8047 32.41 26.8156C31.3642 27.429 30.2672 27.9507 29.1314 28.3748C29.1133 28.3814 29.0969 28.3918 29.0833 28.4054C29.0696 28.419 29.0592 28.4355 29.0526 28.4536C29.0463 28.471 29.0436 28.4897 29.045 28.5082C29.0464 28.5268 29.0517 28.5448 29.0605 28.5612C29.6905 29.7818 30.4124 30.9473 31.2051 32.0498C31.2211 32.0727 31.244 32.0898 31.2705 32.0988C31.2969 32.1078 31.3255 32.1081 31.3521 32.0997C35.1296 30.9438 38.6817 29.1505 41.8546 26.7972C41.8704 26.7861 41.8835 26.7716 41.893 26.7548C41.9026 26.738 41.9083 26.7193 41.9098 26.7001C42.7865 17.6413 40.4424 9.77165 35.6991 2.7971C35.6949 2.78519 35.688 2.77445 35.6789 2.76577C35.6698 2.75709 35.6587 2.75073 35.6466 2.74722ZM14.1271 21.9279C12.0559 21.9279 10.3523 20.0274 10.3523 17.6964C10.3523 15.3655 12.0244 13.4624 14.1271 13.4624C16.2454 13.4624 17.9333 15.3786 17.9018 17.6964C17.9018 20.0274 16.2297 21.9279 14.1271 21.9279ZM28.0814 21.9279C26.0129 21.9279 24.3067 20.0274 24.3067 17.6964C24.3067 15.3655 25.9788 13.4624 28.0814 13.4624C30.1998 13.4624 31.8902 15.3786 31.8561 17.6964C31.8561 20.0274 30.1998 21.9279 28.0814 21.9279Z" fill="white"/>
</svg>
