<svg width="43" height="42" viewBox="0 0 43 42" fill="none" xmlns="http://www.w3.org/2000/svg">
<path d="M12.5437 0H30.1837C36.9037 0 42.3637 5.46 42.3637 12.18V29.82C42.3637 33.0503 41.0805 36.1484 38.7963 38.4326C36.5121 40.7167 33.4141 42 30.1837 42H12.5437C5.82374 42 0.363739 36.54 0.363739 29.82V12.18C0.363739 8.94966 1.64699 5.85163 3.93118 3.56744C6.21537 1.28325 9.3134 0 12.5437 0ZM12.1237 4.2C10.1187 4.2 8.19579 4.9965 6.77801 6.41427C5.36024 7.83205 4.56374 9.75496 4.56374 11.76V30.24C4.56374 34.419 7.94474 37.8 12.1237 37.8H30.6037C32.6088 37.8 34.5317 37.0035 35.9495 35.5857C37.3672 34.1679 38.1637 32.245 38.1637 30.24V11.76C38.1637 7.581 34.7827 4.2 30.6037 4.2H12.1237ZM32.3887 7.35C33.0849 7.35 33.7526 7.62656 34.2449 8.11884C34.7372 8.61113 35.0137 9.2788 35.0137 9.975C35.0137 10.6712 34.7372 11.3389 34.2449 11.8312C33.7526 12.3234 33.0849 12.6 32.3887 12.6C31.6925 12.6 31.0249 12.3234 30.5326 11.8312C30.0403 11.3389 29.7637 10.6712 29.7637 9.975C29.7637 9.2788 30.0403 8.61113 30.5326 8.11884C31.0249 7.62656 31.6925 7.35 32.3887 7.35ZM21.3637 10.5C24.1485 10.5 26.8192 11.6062 28.7884 13.5754C30.7575 15.5445 31.8637 18.2152 31.8637 21C31.8637 23.7848 30.7575 26.4555 28.7884 28.4246C26.8192 30.3937 24.1485 31.5 21.3637 31.5C18.579 31.5 15.9082 30.3937 13.9391 28.4246C11.97 26.4555 10.8637 23.7848 10.8637 21C10.8637 18.2152 11.97 15.5445 13.9391 13.5754C15.9082 11.6062 18.579 10.5 21.3637 10.5ZM21.3637 14.7C19.6929 14.7 18.0904 15.3637 16.909 16.5452C15.7275 17.7267 15.0637 19.3291 15.0637 21C15.0637 22.6709 15.7275 24.2733 16.909 25.4548C18.0904 26.6362 19.6929 27.3 21.3637 27.3C23.0346 27.3 24.637 26.6362 25.8185 25.4548C27 24.2733 27.6637 22.6709 27.6637 21C27.6637 19.3291 27 17.7267 25.8185 16.5452C24.637 15.3637 23.0346 14.7 21.3637 14.7Z" fill="white"/>
</svg>
