<svg width="43" height="42" viewBox="0 0 43 42" fill="none" xmlns="http://www.w3.org/2000/svg">
<path d="M21.7271 0C10.1351 0 0.727112 9.408 0.727112 21C0.727112 32.592 10.1351 42 21.7271 42C33.3191 42 42.7271 32.592 42.7271 21C42.7271 9.408 33.3191 0 21.7271 0ZM31.4711 14.28C31.1561 17.598 29.7911 25.662 29.0981 29.379C28.8041 30.954 28.2161 31.479 27.6701 31.542C26.4521 31.647 25.5281 30.744 24.3521 29.967C22.5041 28.749 21.4541 27.993 19.6691 26.817C17.5901 25.452 18.9341 24.696 20.1311 23.478C20.4461 23.163 25.8221 18.27 25.9271 17.829C25.9417 17.7622 25.9398 17.6929 25.9215 17.627C25.9032 17.5611 25.8691 17.5007 25.8221 17.451C25.6961 17.346 25.5281 17.388 25.3811 17.409C25.1921 17.451 22.2521 19.404 16.5191 23.268C15.6791 23.835 14.9231 24.129 14.2511 24.108C13.4951 24.087 12.0671 23.688 10.9961 23.331C9.67311 22.911 8.64411 22.68 8.72811 21.945C8.77011 21.567 9.29511 21.189 10.2821 20.79C16.4141 18.123 20.4881 16.359 22.5251 15.519C28.3631 13.083 29.5601 12.663 30.3581 12.663C30.5261 12.663 30.9251 12.705 31.1771 12.915C31.3871 13.083 31.4501 13.314 31.4711 13.482C31.4501 13.608 31.4921 13.986 31.4711 14.28Z" fill="white"/>
</svg>
